<?xml version="1.0" encoding="UTF-8"?>
<svg id="Layer_2" data-name="Layer 2" xmlns="http://www.w3.org/2000/svg" viewBox="0 0 3631.45 2142.32">
  <defs>
    <style>
      .cls-1 {
        fill: #2e6c5a;
      }

      .cls-2 {
        fill: #508373;
      }
    </style>
  </defs>
  <g id="Layer_1-2" data-name="Layer 1">
    <g>
      <g>
        <g>
          <circle class="cls-1" cx="713.1" cy="265.74" r="265.67"/>
          <ellipse class="cls-1" cx="912.1" cy="328.5" rx="100.67" ry="56.66" transform="translate(322.76 1098.25) rotate(-72.37)"/>
        </g>
        <path class="cls-2" d="M1750.15,1601.01c11.45-130.13,43.64-226.41,70.13-289.22,79.47-188.45,192.79-277.62,155.54-377.45-13.59-36.41-45.12-68.65-81.35-78.09-89.34-23.27-185.51,97.76-222.89,144.8-38.46,48.39-102.35,144.99-125.27,297.73-101,62.64-202,125.28-303.01,187.92,27.32-81.53,51.27-169.79,72.29-265.19,17.65-79.01,28.16-153.4,32.36-222.74-55.9,55.06-144.99,45.81-200.89,32.36-12.61,55.89-32.36,118.52-58.84,187.44-36.56,94.98-82.8,195.85-137.85,302.6-55.48,106.75-113.47,205.93-174.41,297.97-35.3,56.32-36.56,98.76-2.94,126.92,33.2,28.16,86.58,27.74,159.7-1.26,40.57-26.11,87.6-61.38,134.91-108.43,74.64-74.22,122.09-150,151.67-207.32,76.29-63.34,145.54-104.89,196.86-131.78,82.86-43.42,103.73-40.64,112.26-32.54,17.66,16.77-16.6,57.26-23.28,142.59-2.49,31.73-5.51,85.47,20.59,142.89,18.91,41.61,49.59,76.07,92.46,103.39,42.87,27.32,100.03,42.87,171.05,47.07,56.74,3.36,112.63-.84,168.11-12.61-252.16-121.88-207.19-287.04-207.19-287.04Z"/>
        <path class="cls-1" d="M1350.05,956.73c-.42,13.87-.84,27.74-2.1,42.03-55.9,55.06-144.99,45.81-200.89,32.36,5.04-21.01,8.83-41.19,11.77-60.52,10.51-69.77,2.1-115.58-25.22-136.17-29.42-10.51-63.04,1.26-102.13,35.72-38.66,34.88-79.43,80.69-122.3,138.27-42.87,57.58-85.73,121.88-128.18,192.91-43.29,71.03-81.95,138.27-116.42,202.15-34.46,63.88-63.04,118.1-86.16,163.07-23.11,44.97-36.56,70.61-40.77,76.91-23.11,50.01-47.49,104.65-73.55,163.07-26.06,58.42-54.63,113.05-84.89,163.07-30.26,50.43-61.78,91.62-94.14,123.98-32.36,32.36-66.4,48.75-101.71,48.75s-63.88-10.09-84.89-29.84c-20.6-20.17-37.83-44.55-51.7-73.97-13.45-29-23.54-60.52-29.84-93.72-6.31-33.62-10.51-65.14-12.61-94.14-7.99-81.53-5.04-179.04,9.67-291.67,14.71-113.05,36.98-226.11,67.24-338.74,30.26-113.05,66.4-219.38,108.43-318.57,41.61-99.18,84.48-175.25,128.6-227.37,33.2-39.51,68.5-65.14,105.07-76.91,36.56-11.35,69.76-12.61,100.45-2.94,30.26,9.24,52.53,26.9,67.24,53.37,14.71,26.06,16.81,55.9,6.31,89.1-18.91,63.04-50.43,145.83-94.14,249.64-43.71,103.39-88.26,211.4-133.23,324.45-44.97,113.05-85.31,222.74-120.62,329.5-35.72,106.33-55.48,195.43-59.68,266.45v20.17c0,9.67.84,17.65,2.94,23.54,2.1,6.31,5.88,10.09,10.93,11.35,5.46.84,13.03-5.04,23.54-17.23,29.42-35.72,63.46-92.04,102.13-169.37,38.66-77.33,81.53-163.49,128.6-257.21,47.07-94.14,97.5-191.64,152.14-291.67,54.21-100.45,112.21-192.07,173.99-274.86,61.78-82.37,126.08-149.62,192.9-202.15,66.82-52.11,137.01-78.17,210.14-78.17,62.62,0,105.91,26.9,130.29,81.53,23.95,54.22,34.88,122.3,32.78,203.83Z"/>
      </g>
      <g>
        <path class="cls-2" d="M1972,1181.03c61.97,9.55,148.99,103.49,155.58,152.85-133.17,154.44-196.46,289.77-143.72,324.8,48.78,35.03,159.54-73.24,259.74-310.47,15.82-39.8,35.6-78.02,59.33-114.64,25.05,1.59,145.04,65.28,155.58,124.19-69.88,184.69-100.21,240.42-60.65,289.77,42.19,44.58,178-41.4,275.57-288.18l81.75,60.5c-50.1,144.89-188.55,407.59-383.68,402.82-93.61-3.18-148.99-84.38-164.81-192.65-59.33,109.86-139.76,208.57-245.24,192.65-195.14-33.44-184.59-415.55,10.55-641.64Z"/>
        <path class="cls-2" d="M2984.62,661.98c63.29-4.78,172.72,100.31,178,149.66-357.31,491.98-441.7,794.49-342.81,853.4,59.33,35.03,152.95-41.4,197.78-160.81-23.73-7.96-55.38-39.8-73.84-66.87-56.7-203.8,112.07-388.49,204.37-179.91,15.82,38.21,19.78,105.08,18.46,168.77,64.61,15.92,137.12,7.96,164.81-63.68l79.11,62.09c-30.33,109.86-155.58,138.52-267.66,117.82-54.06,138.52-147.67,308.88-315.12,283.4-361.27-52.54-121.3-780.16,156.9-1163.87Z"/>
        <path class="cls-2" d="M3090.09,1733.51c14.5-55.73,50.1-92.35,69.88-101.9,21.1,55.73,187.23,132.15,246.56,27.07,44.83-74.83-68.56-189.47-85.7-302.51-32.96-214.94,129.21-377.34,250.52-277.04,100.21,78.02-3.96,246.78-131.85,264.3,22.41,176.73,243.92,199.02,180.63,399.63-61.97,208.57-386.32,111.45-530.04-9.55Z"/>
      </g>
    </g>
  </g>
</svg>